<svg width="330" height="43" viewBox="0 0 330 43" fill="none" xmlns="http://www.w3.org/2000/svg">
<path d="M53.8298 12.3041C53.8605 12.3101 53.889 12.3101 53.9044 12.295C53.9044 12.295 53.8758 12.2965 53.8298 12.3041Z" fill="#2F2F2F"/>
<path d="M53.8103 12.3058L53.8301 12.3036L53.8103 12.3058Z" fill="#2F2F2F"/>
<path d="M263.149 35.4657C263.201 35.5255 263.162 35.4644 263.029 35.338C263.097 35.4255 263.129 35.4755 263.149 35.4657Z" fill="#2F2F2F"/>
<path d="M309.259 17.9065C310.074 17.6172 308.155 16.6787 308.033 17.7556C307.956 18.2152 307.427 20.6792 308.789 22.8386C309.877 24.9718 313.458 25.5974 313.701 25.7082C313.67 25.5407 310.441 24.8942 309.309 23.1695C308.17 21.3173 308.293 19.2714 308.454 19.1482C308.557 18.8769 308.365 18.3439 309.259 17.9065Z" fill="#2F2F2F"/>
<path d="M313.701 25.7091C313.705 25.7148 313.712 25.7219 313.705 25.7262C313.723 25.7219 313.719 25.7162 313.701 25.7091Z" fill="#2F2F2F"/>
<path d="M173.554 15.6901C173.598 15.7417 173.567 15.6943 173.477 15.5953C173.515 15.6608 173.537 15.6985 173.554 15.6901Z" fill="#2F2F2F"/>
<path d="M175.294 20.2431C178.532 18.9959 179.649 16.4032 178.643 14.522C177.732 12.6131 175.436 11.3783 173.366 10.8343C173.154 10.7831 172.953 10.7416 172.75 10.6986C173.137 10.7263 173.532 10.7609 173.939 10.8038C177.813 11.0821 180.512 11.7175 180.577 11.8476C180.831 11.831 178.914 10.4495 175.77 9.89577C176.117 9.893 176.471 9.89023 176.828 9.893C181.364 10.0633 185.018 10.7471 185.044 10.736C185.09 10.7651 183.176 9.69505 180.02 9.12058C181.803 9.0223 183.722 8.97109 185.774 8.99877C191.558 9.09844 198.138 10.4467 203.71 13.3827C205.475 14.2825 207.13 15.3179 208.74 16.4184C210.399 18.2276 214.452 22.7126 225.527 29.2533C226.047 29.5689 220.492 26.8516 215.984 23.5114C211.358 20.2431 207.103 16.7963 207.376 17.159C211.546 21.7879 219.937 29.3709 231.794 32.4066C240.146 34.3003 246.915 32.8537 250.418 31.81C252.756 31.3255 254.909 30.6292 256.746 29.7502C258.11 29.6824 259.939 29.7668 262.054 30.3482C266.634 31.2189 270.933 36.7906 264.547 39.739C261.726 41.1122 257.745 40.6568 255.942 39.1023C253.923 37.61 254.631 35.481 256.534 34.5979C260.19 33.0268 262.463 34.7889 263.033 35.3371C262.893 35.1433 262.596 34.7557 261.899 34.3127C260.986 33.5777 258.335 33.1873 256.01 34.1522C253.619 35.0173 252.361 37.7194 254.753 39.6643C256.775 41.6964 262.091 42.3747 265.566 40.6485C269.165 39.0787 270.209 36.0486 268.863 33.9141C267.624 31.738 264.849 30.3884 262.391 29.8333C260.321 29.4041 258.602 29.3779 257.275 29.4886C257.542 29.3502 257.811 29.2117 258.062 29.0664C259.231 29.0387 262.292 29.2283 265.148 30.2485C268.865 31.284 271.339 33.341 271.223 33.5998C271.391 33.9487 272.128 34.4415 271.907 35.3329C271.75 36.1579 274.092 35.8797 272.978 34.9246C272.659 34.4705 270.511 31.4473 266.055 30.2915C262.93 29.1868 259.559 28.9252 258.193 28.9861C258.774 28.6442 259.316 28.2843 259.806 27.9008C262.319 26.0501 263.702 23.9682 264.255 22.0371C265.933 20.4771 268.273 18.5848 271.477 16.5859C279.127 11.3866 295.013 7.13418 311.627 9.89716C319.826 11.125 326.216 14.8293 326.117 19.4956C326.967 24.0775 320.213 27.0717 314.927 26.4557C309.35 26.0999 306.907 22.9549 306.396 21.1194C305.778 19.1551 306.099 17.984 305.981 17.9951C306.103 17.9923 305.552 19.115 305.854 21.1761C306.046 23.0518 308.146 26.7754 314.638 27.5548C320.6 28.7134 329.769 25.1572 329.085 19.4444C329.74 13.9351 321.445 8.88113 312.547 7.74742C303.4 6.21642 294.557 6.81027 287.107 8.51152C287.184 8.4603 287.254 8.40355 287.328 8.34818C289.653 7.74326 295.737 6.87117 302.161 6.70091C310.399 6.37561 318.543 7.55777 319.046 7.80139C320.176 8.0741 322.022 8.37448 324.277 9.46666C326.522 10.545 327.278 9.08323 324.155 8.57382C322.971 8.17377 316.12 6.64554 308.36 6.44621C310.443 6.18874 312.027 5.5326 311.992 5.53399C311.953 5.53537 309.79 4.77541 307.025 4.87092C304.161 5.06749 302.371 6.05585 302.266 6.04062C302.207 6.05862 303.179 6.31609 304.528 6.46559C304.318 6.47389 304.11 6.47666 303.903 6.48773C296.812 6.57494 290.127 7.52869 287.49 8.22359C288.703 7.21724 289.312 5.94233 289.255 5.97279C284.704 4.55531 277.158 10.3623 286.356 7.75571C286.565 7.7128 283.261 9.28394 283.561 9.32132C283.661 9.3407 283.755 9.34346 283.854 9.35453C282.503 9.74213 281.21 10.1671 279.984 10.6184C280.654 9.93731 281.048 9.28809 280.974 9.31992C278.891 8.40908 275.928 9.1912 274.838 10.0384C273.828 10.4384 273.389 11.8559 274.228 11.4891C274.969 11.071 276.068 11.2759 278.183 10.725C278.393 10.6433 275.237 12.0815 276.092 11.8933C276.24 11.9583 276.391 12.0054 276.54 12.04C275.159 12.6768 273.898 13.3467 272.773 14.0361C272.866 13.8354 272.921 13.6056 273.072 13.2928C273.308 12.4179 273.262 11.4877 273.247 11.4863C271.009 10.9395 268.413 12.5383 268.195 13.8838C267.965 14.1593 269.641 14.5704 269.06 14.4569C269.298 14.8653 270.277 14.2548 271.586 13.4215C271.335 13.7219 270.777 14.9954 270.43 15.3124C270.758 15.2044 271.035 15.1061 271.278 15.0162C270.904 15.2806 270.541 15.5477 270.211 15.8149C267.747 17.613 265.894 19.3046 264.508 20.7733C264.609 19.8098 264.504 18.9101 264.231 18.1307C263.335 15.4951 261.499 14.1192 261.158 13.798C259.76 12.3957 256.976 11.0544 253.147 10.1685C252.297 9.96084 251.351 9.79196 250.335 9.67707C250.94 9.49296 250.586 8.62225 247.687 6.80057C247.732 6.49742 251.86 8.75792 251.731 8.52536C251.989 7.39581 249.256 5.72224 246.585 5.83298C244.182 5.88558 242.624 6.40883 242.56 6.38115C243.981 7.99658 247.164 8.48106 248.493 9.29501C248.694 9.39052 248.895 9.46942 249.089 9.53171C247.177 9.21887 244.702 8.95309 242.147 9.1635C236.638 9.40713 231.726 11.1748 231.359 11.2413C230.673 11.5347 229.635 11.9362 227.952 12.519C226.165 13.0837 228.103 14.0223 229.084 12.9024C229.451 12.2559 234.912 9.98021 241.031 9.43343C243.605 9.10121 246.1 9.26317 248.124 9.5248C245.08 9.45281 241.605 9.92484 238.153 11.3963C232.784 14.2811 234.853 16.8628 236.573 16.5042C238.764 16.3353 240.119 15.0535 243.351 12.7169C244.173 12.1936 247.018 10.9035 251.508 11.543C255.885 12.0234 261.737 14.7379 262.487 19.3655C263.431 23.8519 258.346 29.2726 249.872 30.9254C248.322 31.2867 246.705 31.5179 245.064 31.6259C241.444 31.7394 237.294 31.5193 233.343 30.2527C226.073 28.0462 219.959 23.4823 215.352 20.2431C212.7 18.1986 210.095 16.2052 207.215 14.504C201.308 10.7554 193.872 8.8119 187.356 8.56411C183.868 8.47275 180.748 8.60841 178.025 8.84927C177.699 8.8202 177.365 8.79806 177.022 8.78283C172.87 8.76622 169.89 9.75734 168.943 10.1076C168.321 10.2626 167.836 10.4218 167.521 10.5256C166.575 10.7457 166.076 10.8689 166.074 10.7997C166.173 10.8869 166.673 10.8232 167.506 10.6834C167.569 10.6779 167.634 10.6723 167.702 10.6668C167.962 10.6613 168.303 10.6474 168.712 10.6377C169.852 10.6433 171.336 10.7928 172.99 11.3326C176.782 12.2435 179.898 17.0386 174.363 19.2991C171.907 20.3608 168.651 19.8763 167.237 18.5363C165.749 17.2213 166.424 15.5145 168.061 14.8168C171.214 13.5115 173.056 15.1338 173.48 15.5934C173.382 15.4314 173.17 15.0784 172.595 14.659C171.893 14.0139 169.61 13.5253 167.573 14.3517C165.451 15.0148 164.175 17.2794 166.002 19.0582C167.591 20.8813 172.162 21.6343 175.294 20.2431Z" fill="#2F2F2F"/>
<path d="M266.936 15.3595C267.001 15.2543 266.91 17.4137 267.137 17.321C270.343 16.0461 266.578 13.2097 266.586 13.2097C261.93 14.3683 264.449 20.6709 266.936 15.3595Z" fill="#2F2F2F"/>
<path d="M264.641 13.2056C267.008 11.1693 260.28 8.11701 260.315 8.49076C257.968 10.9824 264.779 18.0726 262.904 10.8966C262.917 10.7637 264.497 13.4049 264.641 13.2056Z" fill="#2F2F2F"/>
<path d="M268.597 12.3999C271.885 11.6593 269.292 7.86093 269.213 7.94121C264.213 8.46723 264.974 16.0724 268.909 10.3443C268.959 10.2958 268.24 12.537 268.597 12.3999Z" fill="#2F2F2F"/>
<path d="M258.986 10.2225C260.079 7.56746 253.617 8.03396 254.006 8.21945C253.779 9.86949 254.952 10.4979 256.016 10.97C256.585 11.1084 258.814 11.2371 256.744 8.9808C256.838 8.8576 258.844 10.228 258.986 10.2225Z" fill="#2F2F2F"/>
<path d="M273.596 9.96362C277.333 9.16905 274.661 5.50215 274.606 5.57828C269.89 6.15967 269.702 12.6408 274.267 7.86093C274.363 7.75849 273.347 10.0065 273.596 9.96362Z" fill="#2F2F2F"/>
<path d="M265.127 6.9307C265.161 6.72999 265.942 9.41822 266.145 9.02924C268.83 7.44841 263.737 4.35737 263.706 4.52348C259.779 6.35762 265.161 13.5655 265.127 6.9307Z" fill="#2F2F2F"/>
<path d="M255.538 7.51071C256.661 4.66467 250.228 4.07636 250.368 4.08882C248.489 7.24355 256.523 10.2903 253.132 5.74579C253.04 5.58244 255.466 7.25877 255.538 7.51071Z" fill="#2F2F2F"/>
<path d="M270.996 7.11343C274.462 5.80808 270.598 1.64699 270.777 1.7522C266.134 2.91221 268.009 11.4531 270.97 4.61208C271.059 4.45566 270.83 7.28231 270.996 7.11343Z" fill="#2F2F2F"/>
<path d="M282.481 4.18572C277.143 4.22032 272.51 10.6253 280.429 6.5971C280.44 6.63863 278.043 8.66795 277.936 8.82714C282.429 8.73163 282.615 3.985 282.481 4.18572Z" fill="#2F2F2F"/>
<path d="M259.832 4.93183C259.865 4.73942 260.708 7.70866 260.879 7.27123C263.645 5.59351 258.374 2.10932 258.182 2.37787C256.687 3.60155 256.812 5.66687 257.629 6.98607C258.746 8.69563 259.725 8.32742 259.832 4.93183Z" fill="#2F2F2F"/>
<path d="M266.715 25.7276C269.573 23.1487 271.263 20.801 271.324 20.7899C271.335 20.747 267.493 22.1188 264.639 24.6935C261.958 27.1907 259.137 28.8726 258.881 28.7715C258.768 29.029 263.665 28.4961 266.715 25.7276Z" fill="#2F2F2F"/>
<path d="M266.792 28.921C269.851 28.2732 271.499 26.7118 271.481 26.7505C271.431 26.7353 268.73 26.7547 265.946 27.3375C263.547 27.9272 260.806 28.8684 260.957 28.8712C261.069 28.8297 263.42 29.6547 266.792 28.921Z" fill="#2F2F2F"/>
<path d="M269.468 30.7538C270.784 31.0196 272.335 30.3925 272.281 30.3856C272.231 30.3745 271.56 29.4222 270.203 29.1481C268.664 28.8574 267.251 29.6935 267.336 29.6782C267.41 29.7018 268.304 30.524 269.468 30.7538Z" fill="#2F2F2F"/>
<path d="M246.126 9.07077C246.548 9.08185 242.348 6.62755 236.45 6.67185C230.612 6.42407 226.147 7.79448 226.191 7.7571C226.226 7.78756 230.845 8.09901 236.295 8.33987C241.909 8.2845 245.899 8.94065 246.126 9.07077Z" fill="#2F2F2F"/>
<path d="M236.077 9.07078C236.053 9.08323 233.013 8.4174 229.309 8.73163C225.553 9.05139 222.992 10.4246 222.998 10.383C223.027 10.4149 226.167 10.6807 229.678 10.3858C233.232 10.0854 236.105 9.07908 236.077 9.07078Z" fill="#2F2F2F"/>
<path d="M223.988 11.9016C221.539 12.7944 220.68 14.2133 220.608 14.2216C220.562 14.2576 223.164 14.1275 225.238 13.3717C227.345 12.6505 228.929 11.4212 228.901 11.3935C228.914 11.4323 226.482 11.0613 223.988 11.9016Z" fill="#2F2F2F"/>
<path d="M296.189 4.64252C291.945 5.34296 289.286 7.22417 289.504 7.25047C289.605 7.12727 292.929 6.89472 296.919 6.24827C300.806 5.58106 304.056 4.45289 304.016 4.42243C304.005 4.46119 300.446 3.91579 296.189 4.64252Z" fill="#2F2F2F"/>
<path d="M285.366 3.56142C284.382 4.52624 284.435 5.45924 284.238 5.53399C284.1 5.65719 286.513 5.53814 287.435 4.59546C288.519 3.73168 288.392 2.50107 288.388 2.50384C288.386 2.50661 286.471 2.67964 285.366 3.56142Z" fill="#2F2F2F"/>
<path d="M278.673 3.88257C279.051 2.70041 277.997 1.86985 278.021 1.7951C278.052 1.71897 276.396 2.5509 276.131 3.43268C275.884 4.71173 276.929 5.4191 276.905 5.53399C276.854 5.64473 278.576 4.69651 278.673 3.88257Z" fill="#2F2F2F"/>
<path d="M266.379 5.12979C266.276 5.00659 267.425 4.1525 267.126 2.6312C266.842 1.35768 264.915 0.379007 264.945 0.481442C264.991 0.582493 264.237 1.60407 264.534 2.93711C264.746 4.01822 266.326 5.26683 266.379 5.12979Z" fill="#2F2F2F"/>
<path d="M255.7 5.11773C255.697 5.12225 255.695 5.12677 255.695 5.12979C255.704 5.12979 255.708 5.12677 255.7 5.11773Z" fill="#2F2F2F"/>
<path d="M254.939 2.3751C254.638 1.55562 251.978 0.615714 252.186 0.787362C252.337 0.975621 251.762 1.81586 253.025 3.52542C253.705 4.26877 255.601 5.02735 255.7 5.12009C255.761 5.01073 256.462 3.83688 254.939 2.3751Z" fill="#2F2F2F"/>
<path d="M243.731 3.00909C243.694 2.98556 243.996 4.21617 245.508 4.87093C246.476 5.35957 248.6 5.48692 248.517 5.43293C248.412 5.39694 248.598 4.284 246.9 3.44929C245.615 2.88867 243.773 3.02847 243.731 3.00909Z" fill="#2F2F2F"/>
<path d="M181.174 14.1814C179.699 12.1341 176.703 11.6233 176.83 11.6967C176.915 11.7188 178.497 13.0062 179.581 14.6521C180.765 16.3035 181.801 17.8719 181.854 17.858C181.784 17.8774 182.555 16.1623 181.174 14.1814Z" fill="#2F2F2F"/>
<path d="M180.883 18.2083C181.154 17.2213 180.064 16.5167 180.101 16.5458C180.079 16.5734 179.373 17.2711 179.157 17.9951C178.912 18.726 179.214 19.5565 179.223 19.5787C179.183 19.587 180.545 19.1689 180.883 18.2083Z" fill="#2F2F2F"/>
<path d="M75.376 30.5686C75.3783 30.5778 75.3693 30.5793 75.3424 30.5793C75.3693 30.5809 75.3783 30.5793 75.376 30.5686Z" fill="#2F2F2F"/>
<path d="M66.4342 35.9751C66.4561 35.9876 66.4888 35.9362 66.5544 35.8474C66.4233 35.9737 66.3796 36.0349 66.4342 35.9751Z" fill="#2F2F2F"/>
<path d="M74.8319 40.1764C77.2247 38.2316 75.9682 35.5295 73.5754 34.6629C71.2525 33.6967 68.6019 34.0871 67.6885 34.8235C66.9914 35.2665 66.6942 35.6554 66.5522 35.8479C67.1204 35.3011 69.393 33.5375 73.051 35.1114C74.9564 35.9946 75.6644 38.1236 73.6453 39.6144C71.8425 41.169 67.8633 41.6258 65.0401 40.2512C58.6571 37.3013 62.951 31.7311 67.5312 30.8604C71.8557 29.6713 75.0133 30.5545 75.3454 30.5794C75.0264 30.5337 72.0632 29.3391 67.1968 30.3454C64.7363 30.9019 61.9611 32.2516 60.7221 34.4262C59.3783 36.5608 60.4206 39.5895 64.0218 41.1607C67.4962 42.8868 72.8128 42.2071 74.8319 40.1764Z" fill="#2F2F2F"/>
<path d="M15.9543 26.4127C15.939 26.4515 19.5227 25.9421 20.9583 23.8463C22.1449 21.8862 21.922 19.7489 21.7909 19.6063C21.7428 19.2866 21.544 18.8575 21.4631 18.0601C21.2074 17.1604 19.4658 18.265 20.506 18.5335C21.1659 18.6886 22.1121 21.1498 20.9059 23.3701C19.8701 25.7594 15.7292 26.3629 15.9543 26.4127Z" fill="#2F2F2F"/>
<path d="M162.014 14.8653C159.973 14.0361 157.692 14.5275 156.99 15.1712C156.414 15.5906 156.204 15.945 156.108 16.1056C156.529 15.6474 158.374 14.0223 161.527 15.329C163.161 16.028 163.841 17.7334 162.346 19.0485C160.935 20.3885 157.679 20.873 155.225 19.8112C149.688 17.5507 152.806 12.7543 156.597 11.8462C158.249 11.305 159.733 11.1568 160.874 11.1485C161.284 11.1624 161.627 11.1762 161.89 11.1804C162.624 11.2316 163.094 11.3243 163.201 11.3257C163.129 11.3174 162.88 11.2413 162.475 11.1555C162.48 11.1527 162.488 11.1527 162.484 11.1458C162.48 11.1471 162.467 11.1499 162.462 11.1527C162.427 11.1444 162.386 11.1361 162.346 11.1278C162.095 11.0516 161.496 10.8329 160.64 10.617C159.687 10.2654 156.713 9.27701 152.565 9.29362C147.662 9.49572 144.478 11.2842 144.541 11.2454C144.568 11.2551 148.217 10.5727 152.758 10.401C153.116 10.401 153.47 10.4024 153.82 10.4052C150.667 10.9603 148.75 12.339 149.006 12.357C149.074 12.2282 151.772 11.5901 155.647 11.3146C156.053 11.269 156.446 11.2344 156.833 11.2081C156.63 11.2496 156.427 11.2911 156.219 11.3423C154.152 11.8863 151.853 13.1211 150.942 15.0314C149.937 16.9112 151.051 19.5053 154.29 20.7539C157.423 22.1437 161.992 21.3921 163.581 19.5704C165.408 17.793 164.134 15.5283 162.014 14.8653Z" fill="#2F2F2F"/>
<path d="M163.225 11.3183C163.229 11.3242 163.22 11.3271 163.198 11.3271C163.223 11.3285 163.229 11.3256 163.225 11.3183Z" fill="#2F2F2F"/>
<path d="M156.029 16.2009C156.046 16.2093 156.068 16.1716 156.108 16.1047C156.015 16.2037 155.987 16.2511 156.029 16.2009Z" fill="#2F2F2F"/>
<path d="M64.0348 15.8716C64.0523 15.7664 64.2818 17.9231 64.5003 17.8317C67.4503 16.5554 63.4995 13.7191 63.4886 13.7191C58.845 14.8763 62.2627 21.183 64.0348 15.8716Z" fill="#2F2F2F"/>
<path d="M67.9573 11.7534C68.0425 11.6053 66.5479 14.3378 66.7795 14.2977C70.573 13.038 69.275 9.43342 69.6705 9.18425C63.7618 8.97661 62.2125 17.804 67.9573 11.7534Z" fill="#2F2F2F"/>
<path d="M60.8445 8.36893C56.7757 10.3484 61.7274 16.4793 62.0202 10.646C62.0071 10.4675 62.9554 12.901 63.0406 12.8636C65.6629 10.8038 60.8118 8.46168 60.8445 8.36893Z" fill="#2F2F2F"/>
<path d="M70.4025 9.78503C69.4716 11.179 70.6888 11.0516 73.6475 10.1934C73.3503 10.3692 72.0218 11.4032 72.3954 11.3645C75.1051 11.9708 75.4503 9.15519 75.8218 9.00016C74.2725 7.82769 71.01 8.7593 70.4025 9.78503Z" fill="#2F2F2F"/>
<path d="M53.8298 12.3041C53.8847 12.3011 53.911 12.2965 53.9044 12.295C53.889 12.3101 53.8605 12.3101 53.8298 12.3041Z" fill="#2F2F2F"/>
<path d="M55.458 6.024C51.0898 7.89828 57.3285 14.0762 56.6642 8.15991C56.6577 8.05194 57.7481 10.1574 57.9076 10.012C60.1627 8.27618 55.4646 6.10844 55.458 6.024Z" fill="#2F2F2F"/>
<path d="M65.8224 7.59513C65.8137 7.53699 65.3307 9.8667 65.3548 10.0065C68.9385 8.64717 66.207 5.24604 66.3556 5.10761C61.0718 5.86203 61.9 13.1834 65.8224 7.59513Z" fill="#2F2F2F"/>
<path d="M74.0693 8.26512C74.7008 7.7917 75.5508 7.68511 77.6158 6.72721C77.382 6.88086 75.3629 8.5738 76.0337 8.35509C79.1607 8.73161 79.5694 4.83216 79.6087 4.78509C77.2181 4.25354 74.7314 5.70838 73.8464 6.87393C73.3635 7.31413 73.3744 8.73715 74.0693 8.26512Z" fill="#2F2F2F"/>
<path d="M78.1665 7.9495C76.6871 9.29638 77.1132 9.71719 82.0998 8.22081C81.2388 8.62917 79.1236 9.90408 79.3137 9.95529C81.7983 9.92069 82.4057 9.09982 83.8851 8.54196C85.4541 7.95504 87.2066 7.20754 87.1279 7.19646C86.1992 6.57354 84.9078 6.18873 82.9848 6.24548C81.0203 6.24133 78.9903 7.29197 78.1665 7.9495Z" fill="#2F2F2F"/>
<path d="M59.9901 5.00795C59.9967 4.89444 60.3507 7.7031 60.6413 7.62558C63.2832 5.61979 59.4897 2.34879 59.2974 2.26296C54.6976 4.12064 58.7205 12.0178 59.9901 5.00795Z" fill="#2F2F2F"/>
<path d="M67.8808 7.0082C68.0207 7.90936 69.0543 8.94063 71.0865 5.6807C71.0996 5.59626 70.5883 8.06855 70.6276 8.24296C74.1851 6.70367 71.4755 3.16412 71.8579 3.00493C69.0783 3.06307 67.7803 5.67378 67.8808 7.0082Z" fill="#2F2F2F"/>
<path d="M57.6957 35.6236C57.3111 35.135 59.0308 32.0356 63.4864 30.7344C65.8901 29.8097 68.5189 29.4207 70.2474 29.3294C70.4703 29.3446 70.6145 29.3363 70.6691 29.3114C71.5869 29.2879 72.1682 29.3571 72.1682 29.4789C72.155 29.31 71.4776 29.2062 70.4419 29.2173C69.6508 28.892 67.2449 27.3513 64.9396 25.2043C62.0857 22.6282 58.2463 21.2578 58.2573 21.3007C58.3163 21.3118 60.0076 23.6595 62.8658 26.2369C64.9745 28.1528 67.9617 28.9972 69.57 29.2505C69.2509 29.2712 68.9079 29.3017 68.5539 29.3418C68.1147 29.1577 65.7437 28.3673 63.6284 27.8482C60.8467 27.2668 58.148 27.2447 58.0978 27.2599C58.0803 27.2212 59.7235 28.7854 62.7872 29.4304C64.1529 29.728 65.3482 29.7682 66.2987 29.7142C65.5776 29.8748 64.8544 30.0769 64.1595 30.3288C60.2567 31.4002 57.6607 33.6746 57.7525 33.9307C57.4946 34.3003 57.1996 34.829 56.4392 35.6624C55.6023 36.5289 58.0431 36.5594 57.6957 35.6236Z" fill="#2F2F2F"/>
<path d="M60.1169 31.2646C61.2772 31.0348 62.171 30.2112 62.2496 30.1904C62.3327 30.2056 60.921 29.3681 59.3827 29.6602C58.0235 29.9329 57.3548 30.8839 57.3024 30.8977C57.2478 30.9019 58.7992 31.5304 60.1169 31.2646Z" fill="#2F2F2F"/>
<path d="M93.1328 7.17986C87.2372 7.13556 83.0351 9.58985 83.4568 9.57878C83.6841 9.44866 87.6721 8.79252 93.288 8.84928C98.7356 8.60565 103.357 8.29696 103.392 8.26512C103.436 8.30388 98.9716 6.93346 93.1328 7.17986Z" fill="#2F2F2F"/>
<path d="M93.5043 9.58016C93.4737 9.58985 96.3516 10.5934 99.9025 10.8966C103.412 11.1914 106.554 10.9257 106.585 10.8924C106.589 10.9312 104.028 9.56078 100.272 9.2424C96.5701 8.92817 93.5306 9.59262 93.5043 9.58016Z" fill="#2F2F2F"/>
<path d="M100.683 11.9016C100.65 11.9306 102.236 13.1585 104.341 13.8811C106.419 14.6355 109.019 14.7684 108.973 14.7324C108.903 14.7213 108.042 13.3052 105.595 12.4096C103.099 11.5721 100.667 11.9431 100.683 11.9016Z" fill="#2F2F2F"/>
<path d="M40.0787 7.75985C40.2972 7.73493 37.6378 5.85096 33.3942 5.15191C29.1353 4.42656 25.5778 4.96918 25.5668 4.93181C25.5275 4.96088 28.7747 6.09182 32.6643 6.75765C36.6545 7.40548 39.976 7.63527 40.0787 7.75985Z" fill="#2F2F2F"/>
<path d="M17.591 6.04337C17.5647 6.04337 18.6835 6.50848 20.2831 6.80887C14.9272 7.08018 10.7098 7.75016 10.3252 7.91212C9.13867 8.14744 7.4364 8.71775 4.73769 9.26177C2.01714 9.80301 3.50087 11.0239 5.93299 9.72411C6.79613 9.00706 13.4457 7.28228 21.179 6.95006C21.5614 6.99851 21.9591 7.03588 22.3743 7.04972C23.4888 7.12724 24.6054 7.04142 25.5035 6.91961C25.5647 6.92238 25.6259 6.92238 25.6849 6.92238C32.1945 6.91546 38.4901 7.72802 41.5384 8.4063C41.7853 8.61671 42.0628 8.81466 42.3622 8.996C34.9413 7.31413 26.135 6.73273 17.0403 8.25957C8.14003 9.39189 -0.154906 14.4472 0.502824 19.9566C-0.181136 25.668 8.98788 29.2256 14.9491 28.0655C21.4413 27.2862 23.5412 23.5639 23.7335 21.6883C24.0373 19.6271 23.4844 18.5059 23.6046 18.5072C23.4888 18.4975 23.81 19.6686 23.1894 21.6301C22.6803 23.4657 20.235 26.6121 14.6606 26.9678C9.37247 27.5838 2.62026 24.5897 3.46811 20.0078C3.36978 15.3414 9.75708 11.6385 17.9559 10.4107C34.5742 7.64634 50.4605 11.8974 58.1087 17.0995C62.4943 19.832 65.2717 22.3735 66.9193 24.1273C68.9188 27.5188 73.547 30.5088 79.6458 31.5705C85.3667 32.7651 91.7256 32.2516 97.1973 30.5448C96.9263 30.6403 96.6575 30.7441 96.3822 30.8327C86.4287 34.0193 76.5429 30.9462 76.7658 31.2397C79.5279 32.797 88.3232 35.4132 97.7588 33.0323C106.924 30.7192 113.448 25.5683 117.86 22.1243C122.229 18.5571 124.532 16.2038 123.011 16.9278C121.271 17.3998 117.15 21.5789 105.001 28.1182C106.845 27.0924 109.795 25.351 112.415 23.3563C116.908 20.0881 121.049 16.5859 120.596 16.8614C116.01 19.2907 110.767 23.5902 104.732 27.0384C111.075 23.0891 115.756 18.2664 121.77 14.6202C127.692 10.7595 135.418 8.67209 142.14 8.39385C155.723 7.99242 163.876 10.9021 163.902 10.6156C163.684 10.5547 156.234 7.87199 143.709 7.85122C137.51 7.85814 130.082 9.32269 124.064 12.4774C117.97 15.5629 113.289 19.8251 108.147 23.6138C103.123 27.4413 96.8302 30.6597 89.5863 31.1898C82.456 31.7588 75.5159 30.1309 71.8404 27.2835C68.0294 24.5108 67.1663 21.1124 67.9442 18.9585C68.6915 16.7368 70.2452 15.5726 70.562 15.3193C71.8141 14.1967 73.9513 12.9162 77.2553 12.1839C80.4369 11.3631 85.312 11.8213 87.9495 14.2299C89.9687 16.5222 91.5595 17.4663 93.4081 16.9583C95.0055 16.7229 95.8687 12.6864 88.5133 10.754C87.7507 10.6004 86.4177 10.2668 84.6718 10.0757C85.5458 10.048 86.4505 10.0563 87.3814 10.1352C92.7111 10.3623 97.5928 12.0441 97.9096 12.123C98.5062 12.4345 99.837 12.6269 100.812 13.6374C101.795 14.5732 103.327 13.4132 101.214 12.8581C100.296 12.5079 94.6449 10.4453 88.5417 10.0162C86.7608 9.82102 85.0585 9.85148 83.5267 9.97606C81.7611 9.86532 79.6721 9.93592 77.3776 10.4412C72.2949 11.388 66.2375 14.7891 65.8704 19.8126C65.7677 20.7041 65.877 21.6094 66.1698 22.505C64.7145 20.7857 62.5599 18.6471 59.3761 16.3284C59.2908 16.2578 59.1925 16.1872 59.1029 16.118C59.6623 16.0474 59.5072 14.9802 59.0723 13.4035C59.1532 13.1765 60.7571 15.5726 60.5932 14.8957C62.1534 14.7171 60.7506 12.9038 59.4722 12.5231C58.1786 11.9735 56.7189 11.813 56.7276 11.806C55.8623 12.8567 56.2272 13.8132 56.7823 14.5303C55.6984 13.8658 54.4878 13.2194 53.1636 12.6048C53.2619 12.5466 53.3734 12.4774 53.4957 12.4027C53.64 12.3431 53.7514 12.3196 53.8279 12.3085C53.817 12.3085 53.8192 12.3099 53.8082 12.3099C53.817 12.3127 53.8192 12.3085 53.8279 12.3085C53.8738 12.3002 53.9 12.2988 53.9022 12.3002C54.0399 12.1756 53.5678 11.3672 52.1715 10.5048C52.0688 10.4661 54.9707 11.489 55.2788 11.7562C55.021 10.1062 53.1024 9.65352 51.4329 9.55524C52.213 9.56908 52.2589 8.79943 50.3491 6.66628C50.0847 6.42127 53.0871 8.71637 52.8795 8.29833C53.7339 6.07798 47.7487 4.69234 47.5215 4.5373C45.3865 6.28839 49.6455 9.36559 51.3084 9.5497C50.0322 9.48464 48.9287 9.62307 48.885 9.57185C48.7277 10.0979 48.9003 10.581 49.2608 11.0059C48.2731 10.6488 47.2461 10.3097 46.1798 9.99544C46.501 9.71443 46.0552 8.9697 44.0973 7.58128C43.9552 7.50653 47.2046 8.93648 47.2221 8.77175C47.0516 6.32853 40.7517 6.28838 40.6359 6.24132C40.354 6.96252 40.7321 7.67541 41.4029 8.29003C38.5272 7.61451 33.0053 6.86978 27.4571 6.74935C27.1905 6.73827 26.9239 6.7355 26.6595 6.7272C27.0965 6.63722 27.35 6.56108 27.3216 6.55139C27.2145 6.56939 25.427 5.58103 22.5601 5.38447C19.798 5.2848 17.6325 6.04337 17.591 6.04337Z" fill="#2F2F2F"/>
<path d="M45.3406 6.04337C45.1483 5.96862 45.2008 5.03425 44.2131 4.06942C43.1117 3.18903 41.1953 3.01461 41.1931 3.01184C41.1931 3.01184 41.0621 4.24245 42.1437 5.10484C43.0681 6.04752 45.4827 6.16796 45.3406 6.04337Z" fill="#2F2F2F"/>
<path d="M52.6785 6.04337C52.6566 5.92987 53.7011 5.22113 53.452 3.94346C53.192 3.0603 51.5312 2.23113 51.564 2.30588C51.588 2.37924 50.537 3.20841 50.9128 4.39057C51.0068 5.20728 52.7287 6.15412 52.6785 6.04337Z" fill="#2F2F2F"/>
<path d="M62.4572 3.14196C62.1556 4.66188 63.3094 5.51597 63.2067 5.64055C63.2592 5.77898 64.8368 4.52622 65.051 3.44789C65.346 2.11208 64.5943 1.09464 64.6402 0.993591C64.6708 0.887003 62.7413 1.86706 62.4572 3.14196Z" fill="#2F2F2F"/>
<path d="M73.8901 5.64056C73.8879 5.63754 73.8857 5.63152 73.8835 5.62851C73.8769 5.63454 73.8791 5.64056 73.8901 5.64056Z" fill="#2F2F2F"/>
<path d="M74.6395 2.88588C73.1208 4.34628 73.8201 5.52152 73.8813 5.62949C73.9796 5.53536 75.8786 4.77817 76.5582 4.03344C77.819 2.32665 77.2421 1.48224 77.3973 1.29537C77.6049 1.1251 74.9477 2.06363 74.6395 2.88588Z" fill="#2F2F2F"/>
<path d="M84.0774 5.37893C85.5874 4.72556 85.8867 3.49496 85.8496 3.51849C85.8103 3.53926 83.9681 3.39945 82.6876 3.95869C80.9897 4.7934 81.1733 5.90634 81.0684 5.94371C80.9854 5.99631 83.1028 5.86757 84.0774 5.37893Z" fill="#2F2F2F"/>
<path d="M148.407 14.6922C147.028 16.6717 147.797 18.3868 147.727 18.3688C147.78 18.3799 148.818 16.8129 149.998 15.1629C151.084 13.5184 152.666 12.2269 152.751 12.2075C152.88 12.1341 149.884 12.6449 148.407 14.6922Z" fill="#2F2F2F"/>
<path d="M148.702 18.7177C149.034 19.6797 150.396 20.0964 150.358 20.0853C150.369 20.0659 150.675 19.2368 150.426 18.5031C150.212 17.7791 149.506 17.0828 149.482 17.0538C149.519 17.0275 148.429 17.7307 148.702 18.7177Z" fill="#2F2F2F"/>
</svg>
