<?xml version="1.0" encoding="utf-8"?>
<!-- Generator: Adobe Illustrator 16.0.0, SVG Export Plug-In . SVG Version: 6.00 Build 0)  -->
<!DOCTYPE svg PUBLIC "-//W3C//DTD SVG 1.1//EN" "http://www.w3.org/Graphics/SVG/1.1/DTD/svg11.dtd">
<svg version="1.1" xmlns="http://www.w3.org/2000/svg" xmlns:xlink="http://www.w3.org/1999/xlink" x="0px" y="0px" width="49px"
	 height="49px" viewBox="0 0 49 49" enable-background="new 0 0 49 49" xml:space="preserve">
<g id="Layer_1" display="none">
	<path display="inline" fill="none" stroke="#2F2F2F" stroke-width="4" d="M41.719,27.625c-0.674,3.713-2.529,7.107-5.289,9.68
		c-2.761,2.571-6.278,4.182-10.029,4.592c-3.75,0.41-7.532-0.403-10.783-2.318c-3.25-1.915-5.795-4.829-7.255-8.309
		c-1.459-3.479-1.755-7.336-0.844-10.997c0.911-3.661,2.981-6.93,5.902-9.318c2.92-2.389,6.534-3.77,10.303-3.937
		c3.769-0.167,7.491,0.888,10.612,3.008"/>
	<path display="inline" fill="#2F2F2F" d="M33.955,30.465l6.417-3.883l0.63,7.801L33.955,30.465z"/>
</g>
<g id="Layer_2">
</g>
<g id="Layer_3">
	<path fill="#2F2F2F" d="M42.602,25.584L35.167,30.5l2.802,1.257c-2.602,4.893-7.733,8.24-13.651,8.24
		c-8.537,0-15.483-6.945-15.483-15.482c0-8.538,6.946-15.483,15.483-15.483c3.529,0,6.776,1.2,9.383,3.196l2.231-3.318
		c-3.248-2.424-7.26-3.878-11.614-3.878c-10.743,0-19.483,8.74-19.483,19.483c0,10.742,8.74,19.482,19.483,19.482
		c7.54,0,14.064-4.32,17.299-10.604l2.467,1.106L42.602,25.584z"/>
</g>
</svg>
